<?xml version="1.0" encoding="UTF-8"?>
<svg version="1.1" xmlns="http://www.w3.org/2000/svg" width="1024" height="459">
<path d="M0 0 C0.6300293 0.21962402 1.26005859 0.43924805 1.90917969 0.66552734 C14.54201476 5.11694778 25.68558842 11.44805098 36 20 C36.59167969 20.45761719 37.18335938 20.91523437 37.79296875 21.38671875 C43.37865472 25.84759839 47.64750528 31.36735977 52 37 C52.60972656 37.77085938 53.21945312 38.54171875 53.84765625 39.3359375 C59.99933135 47.54751292 66.57911922 58.66816689 68 69 C72.7472061 69.23157103 76.61022878 68.89432015 81 67 C84.40336793 63.01917003 86.08549484 57.79995098 88.08056641 53.01953125 C90.28244791 48.18310965 93.67022653 44.10019164 97 40 C97.63679688 39.21109375 98.27359375 38.4221875 98.9296875 37.609375 C103.71544713 31.95871905 109.09402345 27.43806668 115 23 C115.58072266 22.53537354 116.16144531 22.07074707 116.75976562 21.59204102 C121.71295657 17.70492195 126.78025365 14.91530592 132.5 12.3125 C133.30308594 11.93544922 134.10617187 11.55839844 134.93359375 11.16992188 C143.74423129 7.07875874 152.51438849 4.1187792 162 2 C163.17691406 1.71769531 164.35382813 1.43539062 165.56640625 1.14453125 C184.08058941 -2.94329107 205.00672831 -3.37439364 223 3 C223.94975708 3.33487427 223.94975708 3.33487427 224.91870117 3.67651367 C236.94800477 8.03318258 247.99380746 14.01215057 258 22 C258.66128906 22.50917969 259.32257813 23.01835938 260.00390625 23.54296875 C261.38517674 24.63580689 262.70310097 25.80825495 264 27 C264 27.66 264 28.32 264 29 C268.59300588 30.44641622 270.85346054 29.46656852 275.0625 27.3125 C287.94087256 21.06142478 301.30103968 16.99827509 315.65966797 16.84692383 C326.58713733 16.70839001 333.8528879 14.50648752 343.20263672 8.97509766 C358.59183341 0.62621806 376.99222374 0.69070788 394 1 C395.42143311 1.01885254 395.42143311 1.01885254 396.87158203 1.03808594 C429.26514058 1.53793931 466.78520482 3.99002417 495.51782227 20.68334961 C504.31087744 25.76604618 509.79466177 26.80280252 520 25 C523.26610465 24.61694699 526.53895828 24.31209088 529.8125 24 C530.67037109 23.91121582 531.52824219 23.82243164 532.41210938 23.73095703 C537.71158107 23.18601136 542.99181176 22.80974985 548.3125 22.5625 C555.25244353 22.22023099 562.11008924 21.45416136 569 20.5625 C569.95559814 20.44011963 570.91119629 20.31773926 571.89575195 20.19165039 C577.01026186 19.50419943 582.00829406 18.61490127 587.03369141 17.4440918 C589.56994936 16.87127665 592.11301815 16.4849133 594.6875 16.125 C601.84121037 15.06925762 608.94088404 13.7525856 616.0456543 12.40869141 C644.73275328 7.0683231 673.5350378 9.81151672 698.20776367 26.37744141 C720.54095693 41.92336397 736.03282662 65.69249413 741.7109375 92.3359375 C743.88618547 105.35589997 744.26106658 118.63671136 744.3125 131.8125 C744.31578308 132.50944977 744.31906616 133.20639954 744.32244873 133.92446899 C744.34041552 145.7518722 743.40961033 156.64944558 738.88671875 167.7265625 C736.6629503 173.42803051 738.28726745 178.58406952 740.24609375 184.08203125 C742.72601599 193.68048677 742.28099454 204.0025349 742.50268555 213.85546875 C742.56173723 216.46627617 742.62705839 219.07686772 742.69335938 221.6875 C742.89842603 230.04310214 743.05199693 238.39979011 743.10546875 246.7578125 C743.11429581 247.46699829 743.12312286 248.17618408 743.13221741 248.90686035 C743.19918686 275.2463578 729.7902896 300.23180865 712 319 C711.34 319 710.68 319 710 319 C710 319.66 710 320.32 710 321 C708.70581055 322.23339844 708.70581055 322.23339844 706.88671875 323.609375 C706.22124023 324.1139624 705.55576172 324.6185498 704.87011719 325.13842773 C704.14985352 325.67024658 703.42958984 326.20206543 702.6875 326.75 C701.95563477 327.29277588 701.22376953 327.83555176 700.46972656 328.39477539 C683.65165942 340.68333894 664.66131165 348.18252989 643.71875 348.1328125 C642.39500114 348.13492737 642.39500114 348.13492737 641.04450989 348.13708496 C638.19629837 348.13920987 635.34820015 348.13294777 632.5 348.125 C631.52847992 348.1234491 630.55695984 348.12189819 629.55599976 348.12030029 C612.22583806 348.08771235 595.0188088 347.7577154 577.75439453 346.16308594 C568.31041815 345.29369195 559.31829863 344.93049008 549.8671875 345.69921875 C519.48523413 348.06225957 489.70895763 340.99766672 465.62890625 321.85546875 C459.24691336 317.35109041 452.5865338 319.72206359 445.3125 320.9375 C444.07048828 321.11345703 442.82847656 321.28941406 441.54882812 321.47070312 C433.93980955 322.74895373 429.39173656 324.51026944 423.95581055 330.02319336 C421.193451 332.81520749 418.08351896 334.77241656 414.75 336.8125 C413.87214844 337.36454102 413.87214844 337.36454102 412.9765625 337.92773438 C411.32463859 338.96296472 409.6625798 339.98197107 408 341 C407.15179687 341.53882813 406.30359375 342.07765625 405.4296875 342.6328125 C402.80380859 344.1103971 400.22534756 345.09275365 397.375 346.0625 C394.16316743 347.15804289 391.84701782 348.10198812 389 350 C378.69470345 353.97887898 367.92259729 355.15207351 356.9609375 355.09765625 C356.09537231 355.0950177 355.22980713 355.09237915 354.3380127 355.08966064 C345.00678521 355.03435861 335.68659184 354.75375165 326.36376953 354.36523438 C324.45486416 354.2884225 322.54565775 354.21875811 320.63623047 354.15625 C301.29924062 353.52214205 281.28675299 351.64085037 264.09741211 341.92456055 C261.69649149 340.86621037 260.08519299 340.78316149 257.47265625 340.83984375 C256.16953491 340.85712524 256.16953491 340.85712524 254.84008789 340.87475586 C253.92348389 340.89546143 253.00687988 340.91616699 252.0625 340.9375 C244.8592681 341.03204358 237.85702306 340.91077397 230.69140625 340.12109375 C227.64328044 339.98395021 225.0049129 340.47644462 222 341 C219.16971607 341.21315498 216.33564094 341.31915913 213.5 341.4375 C208.10172035 341.68862061 202.89084435 342.10837024 197.5625 343.0625 C192.77799448 343.85616503 188.29955059 344.02397141 183.4453125 343.91796875 C182.25478271 343.89404053 181.06425293 343.8701123 179.83764648 343.84545898 C177.4508482 343.7830392 175.06456168 343.69380228 172.67993164 343.57446289 C165.70045831 343.38881987 161.69452038 344.08403917 156.15209961 348.37841797 C152.49287016 351.13560481 148.35798385 352.83866158 144.1875 354.6875 C143.37474609 355.06455078 142.56199219 355.44160156 141.72460938 355.83007812 C130.3380111 360.93933483 119.14137323 362.55512856 106.75 363.1875 C106.04489288 363.22669556 105.33978577 363.26589111 104.61331177 363.30627441 C64.24043538 365.53612733 24.07141821 365.58273341 -8 337 C-8.94917159 336.05322531 -9.88906171 335.0968903 -10.8125 334.125 C-14.73215085 330.31733918 -19.37914062 329.63154187 -24.625 328.625 C-32.40164298 326.98908443 -39.58588696 324.86002959 -46.61499023 321.10107422 C-56.51969725 315.89338244 -65.20022972 313.70033071 -76.32498169 312.97341919 C-80.4874312 312.69720767 -84.63932843 312.30616503 -88.79296875 311.921875 C-89.59983627 311.84912857 -90.4067038 311.77638214 -91.23802185 311.70143127 C-115.13614938 309.45260684 -137.77708985 300.86427107 -156 285 C-156 284.34 -156 283.68 -156 283 C-156.99 282.67 -157.98 282.34 -159 282 C-159 281.34 -159 280.68 -159 280 C-159.99 279.67 -160.98 279.34 -162 279 C-162 278.34 -162 277.68 -162 277 C-162.99 276.67 -163.98 276.34 -165 276 C-166.28686523 274.62060547 -166.28686523 274.62060547 -167.55859375 272.8671875 C-168.02716797 272.22523438 -168.49574219 271.58328125 -168.97851562 270.921875 C-169.45998047 270.24640625 -169.94144531 269.5709375 -170.4375 268.875 C-170.91509766 268.22273438 -171.39269531 267.57046875 -171.88476562 266.8984375 C-176.56902176 260.42144136 -180.28324252 253.88124257 -183.0625 246.375 C-183.42698242 245.44107422 -183.42698242 245.44107422 -183.79882812 244.48828125 C-188.02265876 233.21726368 -189.53458211 222.25196876 -189.4375 210.25 C-189.42992676 208.93249756 -189.42235352 207.61499512 -189.41455078 206.25756836 C-189.04465421 184.33512167 -182.22885885 162.70883717 -167.22265625 146.30078125 C-164.97552868 142.072161 -166.73350287 137.97493535 -167.9375 133.5703125 C-168.64436677 131.27819305 -169.3526943 128.98652355 -170.0625 126.6953125 C-172.15639453 118.44187821 -172.18235897 110.16505696 -172.1875 101.6875 C-172.20586914 100.1106543 -172.20586914 100.1106543 -172.22460938 98.50195312 C-172.24363672 88.18279154 -170.91311513 78.3425771 -167.375 68.625 C-166.9869519 67.55064697 -166.9869519 67.55064697 -166.59106445 66.45458984 C-157.46377287 42.19216917 -137.71966973 21.08056158 -114.19677734 10.16308594 C-106.03158974 6.55635118 -97.75757655 3.78175109 -89 2 C-87.82050781 1.75636719 -86.64101562 1.51273438 -85.42578125 1.26171875 C-58.59711255 -3.99748245 -26.30342712 -9.50336349 0 0 Z " fill="#3427FD" transform="translate(235,50)"/>
<path d="M0 0 C0.6300293 0.21962402 1.26005859 0.43924805 1.90917969 0.66552734 C14.54201476 5.11694778 25.68558842 11.44805098 36 20 C36.59167969 20.45761719 37.18335938 20.91523437 37.79296875 21.38671875 C43.37865472 25.84759839 47.64750528 31.36735977 52 37 C52.60972656 37.77085938 53.21945312 38.54171875 53.84765625 39.3359375 C59.99933135 47.54751292 66.57911922 58.66816689 68 69 C72.7472061 69.23157103 76.61022878 68.89432015 81 67 C84.40336793 63.01917003 86.08549484 57.79995098 88.08056641 53.01953125 C90.28244791 48.18310965 93.67022653 44.10019164 97 40 C97.63679688 39.21109375 98.27359375 38.4221875 98.9296875 37.609375 C103.71544713 31.95871905 109.09402345 27.43806668 115 23 C115.58072266 22.53537354 116.16144531 22.07074707 116.75976562 21.59204102 C121.71295657 17.70492195 126.78025365 14.91530592 132.5 12.3125 C133.30308594 11.93544922 134.10617187 11.55839844 134.93359375 11.16992188 C143.74423129 7.07875874 152.51438849 4.1187792 162 2 C163.17691406 1.71769531 164.35382813 1.43539062 165.56640625 1.14453125 C184.08058941 -2.94329107 205.00672831 -3.37439364 223 3 C223.94975708 3.33487427 223.94975708 3.33487427 224.91870117 3.67651367 C236.94800477 8.03318258 247.99380746 14.01215057 258 22 C258.66128906 22.50917969 259.32257813 23.01835938 260.00390625 23.54296875 C261.38517674 24.63580689 262.70310097 25.80825495 264 27 C264 27.66 264 28.32 264 29 C268.59300588 30.44641622 270.85346054 29.46656852 275.0625 27.3125 C287.94087256 21.06142478 301.30103968 16.99827509 315.65966797 16.84692383 C326.58713733 16.70839001 333.8528879 14.50648752 343.20263672 8.97509766 C358.59183341 0.62621806 376.99222374 0.69070788 394 1 C395.42143311 1.01885254 395.42143311 1.01885254 396.87158203 1.03808594 C429.26514058 1.53793931 466.78520482 3.99002417 495.51782227 20.68334961 C504.31087744 25.76604618 509.79466177 26.80280252 520 25 C523.26610465 24.61694699 526.53895828 24.31209088 529.8125 24 C530.67037109 23.91121582 531.52824219 23.82243164 532.41210938 23.73095703 C537.71158107 23.18601136 542.99181176 22.80974985 548.3125 22.5625 C555.25244353 22.22023099 562.11008924 21.45416136 569 20.5625 C569.95559814 20.44011963 570.91119629 20.31773926 571.89575195 20.19165039 C577.01026186 19.50419943 582.00829406 18.61490127 587.03369141 17.4440918 C589.56994936 16.87127665 592.11301815 16.4849133 594.6875 16.125 C601.84121037 15.06925762 608.94088404 13.7525856 616.0456543 12.40869141 C644.73275328 7.0683231 673.5350378 9.81151672 698.20776367 26.37744141 C720.54095693 41.92336397 736.03282662 65.69249413 741.7109375 92.3359375 C743.88618547 105.35589997 744.26106658 118.63671136 744.3125 131.8125 C744.31578308 132.50944977 744.31906616 133.20639954 744.32244873 133.92446899 C744.34041552 145.7518722 743.40961033 156.64944558 738.88671875 167.7265625 C736.6629503 173.42803051 738.28726745 178.58406952 740.24609375 184.08203125 C742.72601599 193.68048677 742.28099454 204.0025349 742.50268555 213.85546875 C742.56173723 216.46627617 742.62705839 219.07686772 742.69335938 221.6875 C742.89842603 230.04310214 743.05199693 238.39979011 743.10546875 246.7578125 C743.11429581 247.46699829 743.12312286 248.17618408 743.13221741 248.90686035 C743.19918686 275.2463578 729.7902896 300.23180865 712 319 C711.34 319 710.68 319 710 319 C710 319.66 710 320.32 710 321 C708.70581055 322.23339844 708.70581055 322.23339844 706.88671875 323.609375 C706.22124023 324.1139624 705.55576172 324.6185498 704.87011719 325.13842773 C704.14985352 325.67024658 703.42958984 326.20206543 702.6875 326.75 C701.95563477 327.29277588 701.22376953 327.83555176 700.46972656 328.39477539 C683.65165942 340.68333894 664.66131165 348.18252989 643.71875 348.1328125 C642.39500114 348.13492737 642.39500114 348.13492737 641.04450989 348.13708496 C638.19629837 348.13920987 635.34820015 348.13294777 632.5 348.125 C631.52847992 348.1234491 630.55695984 348.12189819 629.55599976 348.12030029 C612.22583806 348.08771235 595.0188088 347.7577154 577.75439453 346.16308594 C568.31041815 345.29369195 559.31829863 344.93049008 549.8671875 345.69921875 C519.48523413 348.06225957 489.70895763 340.99766672 465.62890625 321.85546875 C459.24691336 317.35109041 452.5865338 319.72206359 445.3125 320.9375 C444.07048828 321.11345703 442.82847656 321.28941406 441.54882812 321.47070312 C433.93980955 322.74895373 429.39173656 324.51026944 423.95581055 330.02319336 C421.193451 332.81520749 418.08351896 334.77241656 414.75 336.8125 C413.87214844 337.36454102 413.87214844 337.36454102 412.9765625 337.92773438 C411.32463859 338.96296472 409.6625798 339.98197107 408 341 C407.15179687 341.53882813 406.30359375 342.07765625 405.4296875 342.6328125 C402.80380859 344.1103971 400.22534756 345.09275365 397.375 346.0625 C394.16316743 347.15804289 391.84701782 348.10198812 389 350 C378.69470345 353.97887898 367.92259729 355.15207351 356.9609375 355.09765625 C356.09537231 355.0950177 355.22980713 355.09237915 354.3380127 355.08966064 C345.00678521 355.03435861 335.68659184 354.75375165 326.36376953 354.36523438 C324.45486416 354.2884225 322.54565775 354.21875811 320.63623047 354.15625 C301.29924062 353.52214205 281.28675299 351.64085037 264.09741211 341.92456055 C261.69649149 340.86621037 260.08519299 340.78316149 257.47265625 340.83984375 C256.16953491 340.85712524 256.16953491 340.85712524 254.84008789 340.87475586 C253.92348389 340.89546143 253.00687988 340.91616699 252.0625 340.9375 C244.8592681 341.03204358 237.85702306 340.91077397 230.69140625 340.12109375 C227.64328044 339.98395021 225.0049129 340.47644462 222 341 C219.16971607 341.21315498 216.33564094 341.31915913 213.5 341.4375 C208.10172035 341.68862061 202.89084435 342.10837024 197.5625 343.0625 C192.77799448 343.85616503 188.29955059 344.02397141 183.4453125 343.91796875 C182.25478271 343.89404053 181.06425293 343.8701123 179.83764648 343.84545898 C177.4508482 343.7830392 175.06456168 343.69380228 172.67993164 343.57446289 C165.70045831 343.38881987 161.69452038 344.08403917 156.15209961 348.37841797 C152.49287016 351.13560481 148.35798385 352.83866158 144.1875 354.6875 C143.37474609 355.06455078 142.56199219 355.44160156 141.72460938 355.83007812 C130.3380111 360.93933483 119.14137323 362.55512856 106.75 363.1875 C106.04489288 363.22669556 105.33978577 363.26589111 104.61331177 363.30627441 C64.24043538 365.53612733 24.07141821 365.58273341 -8 337 C-8.94917159 336.05322531 -9.88906171 335.0968903 -10.8125 334.125 C-14.73215085 330.31733918 -19.37914062 329.63154187 -24.625 328.625 C-32.40164298 326.98908443 -39.58588696 324.86002959 -46.61499023 321.10107422 C-56.51969725 315.89338244 -65.20022972 313.70033071 -76.32498169 312.97341919 C-80.4874312 312.69720767 -84.63932843 312.30616503 -88.79296875 311.921875 C-89.59983627 311.84912857 -90.4067038 311.77638214 -91.23802185 311.70143127 C-115.13614938 309.45260684 -137.77708985 300.86427107 -156 285 C-156 284.34 -156 283.68 -156 283 C-156.99 282.67 -157.98 282.34 -159 282 C-159 281.34 -159 280.68 -159 280 C-159.99 279.67 -160.98 279.34 -162 279 C-162 278.34 -162 277.68 -162 277 C-162.99 276.67 -163.98 276.34 -165 276 C-166.28686523 274.62060547 -166.28686523 274.62060547 -167.55859375 272.8671875 C-168.02716797 272.22523438 -168.49574219 271.58328125 -168.97851562 270.921875 C-169.45998047 270.24640625 -169.94144531 269.5709375 -170.4375 268.875 C-170.91509766 268.22273438 -171.39269531 267.57046875 -171.88476562 266.8984375 C-176.56902176 260.42144136 -180.28324252 253.88124257 -183.0625 246.375 C-183.42698242 245.44107422 -183.42698242 245.44107422 -183.79882812 244.48828125 C-188.02265876 233.21726368 -189.53458211 222.25196876 -189.4375 210.25 C-189.42992676 208.93249756 -189.42235352 207.61499512 -189.41455078 206.25756836 C-189.04465421 184.33512167 -182.22885885 162.70883717 -167.22265625 146.30078125 C-164.97552868 142.072161 -166.73350287 137.97493535 -167.9375 133.5703125 C-168.64436677 131.27819305 -169.3526943 128.98652355 -170.0625 126.6953125 C-172.15639453 118.44187821 -172.18235897 110.16505696 -172.1875 101.6875 C-172.20586914 100.1106543 -172.20586914 100.1106543 -172.22460938 98.50195312 C-172.24363672 88.18279154 -170.91311513 78.3425771 -167.375 68.625 C-166.9869519 67.55064697 -166.9869519 67.55064697 -166.59106445 66.45458984 C-157.46377287 42.19216917 -137.71966973 21.08056158 -114.19677734 10.16308594 C-106.03158974 6.55635118 -97.75757655 3.78175109 -89 2 C-87.82050781 1.75636719 -86.64101562 1.51273438 -85.42578125 1.26171875 C-58.59711255 -3.99748245 -26.30342712 -9.50336349 0 0 Z M-108.35546875 71.765625 C-118.22998383 83.2922963 -118.73025054 96.19427447 -118.18798828 110.63916016 C-117.60709954 117.93421741 -114.44482404 124.28522623 -110 130 C-109.50757812 130.63550781 -109.01515625 131.27101563 -108.5078125 131.92578125 C-104.36361476 136.99621673 -99.78712929 140.8883867 -94 144 C-93.34 144 -92.68 144 -92 144 C-92.13277344 144.71285156 -92.26554687 145.42570312 -92.40234375 146.16015625 C-93.37405788 151.43010955 -94.2917454 156.6880905 -95 162 C-95.94875 162.0825 -96.8975 162.165 -97.875 162.25 C-110.8714778 164.2112391 -120.51666461 172.19774596 -128.3125 182.4140625 C-130.905044 186.38689612 -132.53637599 190.50768868 -134 195 C-134.35578125 195.92039063 -134.7115625 196.84078125 -135.078125 197.7890625 C-138.03371461 208.08353141 -136.77072382 220.49864247 -132 230 C-129.59706368 233.91454484 -126.93184973 237.46832633 -124 241 C-123.50113281 241.64710938 -123.00226563 242.29421875 -122.48828125 242.9609375 C-109.28115211 258.28259388 -86.42628712 259.08805899 -67.8359375 260.5703125 C-65.14584253 260.78810398 -62.59008467 261.07353443 -59.9296875 261.55078125 C-57.39755733 261.93904121 -55.15887417 262.04483177 -52.609375 262.03515625 C-41.74646154 262.04182471 -35.92987742 263.07012258 -28 271 C-20.47741321 276.38092507 -12.46140816 277.47585822 -3.4375 277.3125 C-2.54353516 277.31572266 -1.64957031 277.31894531 -0.72851562 277.32226562 C4.83558207 277.27749234 9.65980735 276.56404709 15 275 C15.04125 275.78375 15.0825 276.5675 15.125 277.375 C17.66649809 287.90406353 25.49498969 296.9323721 34.51953125 302.5859375 C47.08641448 309.75005046 58.46459949 311.34582298 72.8125 311.1875 C74.07843994 311.1774292 75.34437988 311.1673584 76.64868164 311.15698242 C80.4327629 311.11811876 84.21619977 311.05973889 88 311 C89.61310059 310.98694824 89.61310059 310.98694824 91.25878906 310.97363281 C110.32626952 310.79543206 125.75136671 307.1846487 139.9375 293.4375 C143.06950491 290.15955938 145.69891174 286.90184532 148 283 C150.43084786 283.45015701 152.0779653 284.04900676 154.1875 285.375 C168.83596077 293.83855511 187.00556036 291.42662041 203 289 C203.66 288.67 204.32 288.34 205 288 C206.34113477 287.86103344 207.68800596 287.77478811 209.03515625 287.71875 C209.84533203 287.68136719 210.65550781 287.64398438 211.49023438 287.60546875 C212.33908203 287.57066406 213.18792969 287.53585937 214.0625 287.5 C219.78386729 287.25768327 225.41337549 286.90098769 231.08764648 286.10351562 C233 286 233 286 236 287 C238.18717632 287.09525873 240.37715749 287.13073132 242.56640625 287.1328125 C244.5009668 287.13474609 244.5009668 287.13474609 246.47460938 287.13671875 C247.48044067 287.13357666 247.48044067 287.13357666 248.5065918 287.13037109 C250.5585059 287.12501043 252.61020199 287.13032881 254.66210938 287.13671875 C255.95052734 287.13542969 257.23894531 287.13414062 258.56640625 287.1328125 C260.34446655 287.13112061 260.34446655 287.13112061 262.15844727 287.12939453 C264.94825959 287.19506341 264.94825959 287.19506341 267 286 C271.66463 285.3089437 276.15136324 284.83580661 280.2578125 287.421875 C281.59313073 288.64722584 282.9007644 289.90339908 284.1796875 291.1875 C296.18858094 303.14485312 316.96992969 301.40164783 332.51416016 301.83227539 C334.82415779 301.90200567 337.1338072 301.98453427 339.44287109 302.08032227 C353.6825674 302.66608742 365.09804301 302.47734557 378 296 C379.06524902 295.50129395 380.13049805 295.00258789 381.22802734 294.48876953 C388.1823833 291.14882384 396.12633978 285.93827046 398.96484375 278.45703125 C399.24457031 277.64621094 399.52429688 276.83539063 399.8125 276 C400.95703125 273.7421875 400.95703125 273.7421875 403 272 C407.683829 270.87768879 412.57196134 271.1100761 417.359375 271.09375 C423.0718941 271.06983157 428.60252415 270.44690943 434.25 269.625 C435.1059375 269.51043457 435.961875 269.39586914 436.84375 269.27783203 C441.54361762 268.58966352 445.74234508 267.51687916 450.14648438 265.74023438 C452.92032538 264.63245172 455.76595874 263.79660364 458.625 262.9375 C462.77327111 261.68699212 466.89511626 260.38678505 471 259 C471 258.34 471 257.68 471 257 C473.31 256.67 475.62 256.34 478 256 C478 255.34 478 254.68 478 254 C479.98 253.67 481.96 253.34 484 253 C484.22042969 253.89138672 484.22042969 253.89138672 484.4453125 254.80078125 C488.36343232 269.27981025 495.62507595 279.26619901 508.60546875 286.7734375 C517.71850939 291.44145505 526.88902124 292.29906862 537 292.08984375 C539.1110777 292.06711655 541.22216208 292.04500357 543.33325195 292.0234375 C544.42207672 292.00893555 545.51090149 291.99443359 546.63272095 291.97949219 C576.95213384 291.60138914 576.95213384 291.60138914 589.3125 293.5 C601.37262265 295.33290979 613.39108519 295.31057287 625.5625 295.3125 C626.55883453 295.31572266 627.55516907 295.31894531 628.58169556 295.32226562 C631.45180443 295.32796105 634.32134915 295.3176381 637.19140625 295.30078125 C638.47425507 295.30196709 638.47425507 295.30196709 639.78302002 295.30317688 C645.41291245 295.23835744 650.55637068 294.43112337 656 293 C656 292.34 656 291.68 656 291 C656.72445312 290.88914062 657.44890625 290.77828125 658.1953125 290.6640625 C670.44519745 287.76367191 677.90125411 277.61940094 684.203125 267.57421875 C688.62849397 259.39774317 689.44349641 251.19192028 689.36328125 242.03515625 C689.36402901 240.36422157 689.36402901 240.36422157 689.36479187 238.65953064 C689.36246445 236.31735438 689.35281532 233.97517499 689.33618164 231.63305664 C689.31259023 228.07610354 689.3156317 224.51990221 689.32226562 220.96289062 C689.31668742 218.67447476 689.30957665 216.38606201 689.30078125 214.09765625 C689.30169266 213.04836441 689.30260406 211.99907257 689.30354309 210.91798401 C689.17407552 197.22731894 686.70105642 185.7990256 677.4296875 175.375 C675.84195323 173.76682921 675.84195323 173.76682921 673 172 C673 171.34 673 170.68 673 170 C674.16629452 168.93139005 675.38505932 167.9197002 676.625 166.9375 C684.73044042 159.99202544 690.36190139 150.50439915 691.27734375 139.73828125 C691.30861825 136.57955689 691.24511277 133.44381165 691.09863281 130.28857422 C690.98725994 127.70439288 690.92716789 125.1210271 690.8671875 122.53515625 C690.39963202 105.77847962 688.1555908 89.67841191 676 77 C670.56767466 72.14775512 670.56767466 72.14775512 664 70 C664 69.34 664 68.68 664 68 C660.7 67.34 657.4 66.68 654 66 C654 65.34 654 64.68 654 64 C644.02257965 62.1791948 635.31457253 62.63530566 625.53710938 65.359375 C618.71833521 67.20897563 611.82885858 68.14512586 604.83007812 69.0480957 C603.54133789 69.21571411 603.54133789 69.21571411 602.2265625 69.38671875 C601.07534912 69.52920044 601.07534912 69.52920044 599.90087891 69.67456055 C597.92015577 69.91914462 597.92015577 69.91914462 596 71 C594.46331135 71.22467831 592.92031946 71.40796805 591.375 71.5625 C590.14910156 71.68818359 590.14910156 71.68818359 588.8984375 71.81640625 C587.95871094 71.90728516 587.95871094 71.90728516 587 72 C587 72.66 587 73.32 587 74 C586.20513184 74.06058594 585.41026367 74.12117188 584.59130859 74.18359375 C579.01038726 74.61068412 573.43017861 75.04371592 567.8515625 75.5 C565.77609087 75.6672783 563.70056857 75.83392882 561.625 76 C559.95594604 76.13462646 559.95594604 76.13462646 558.25317383 76.27197266 C551.71012179 76.77931541 545.19100217 77.11673987 538.63110352 77.29174805 C525.49720396 77.66320527 515.11532444 79.19954989 504.12109375 87.0234375 C502 88 502 88 500.05859375 87.421875 C497.50588561 85.65871416 495.0641067 83.79287294 492.625 81.875 C486.11933141 76.87572528 479.20536218 72.89623288 472 69 C471.30648437 68.60039063 470.61296875 68.20078125 469.8984375 67.7890625 C452.02551291 57.94714367 430.62927624 56.92482061 410.75 55.8125 C409.60283508 55.74804184 409.60283508 55.74804184 408.43249512 55.68228149 C387.57329645 54.25227656 387.57329645 54.25227656 367 57 C366.31808594 57.17144531 365.63617187 57.34289062 364.93359375 57.51953125 C358.31888323 59.59080424 351.87928132 64.12071868 347 69 C345.05760077 69.13436912 343.11064146 69.20366501 341.1640625 69.24609375 C339.95363281 69.27896484 338.74320313 69.31183594 337.49609375 69.34570312 C334.95449596 69.4059731 332.4128278 69.46335799 329.87109375 69.51757812 C312.65948992 69.9981972 295.34213445 73.10641633 282.375 85.3125 C278.8855005 88.42783405 275.5896219 88.96715834 271 89 C270.14535156 89.02578125 269.29070312 89.0515625 268.41015625 89.078125 C261.68314398 89.19666266 261.68314398 89.19666266 259.1953125 88.48046875 C256.51594576 87.8940593 253.99007285 88.08511516 251.26367188 88.16796875 C247.59000377 88.20151823 244.59708149 87.90112454 241 87 C238.57220644 84.20668362 237.5605075 81.66141716 236.265625 78.20703125 C232.86614136 69.59290757 224.8268943 63.52446864 217 59 C216.34 59 215.68 59 215 59 C215 58.34 215 57.68 215 57 C205.73527199 53.55265935 197.8402773 52.47622533 188 53 C186.97519531 53.00902344 185.95039063 53.01804688 184.89453125 53.02734375 C167.48891218 53.57885259 151.1085945 60.29659036 139.0625 72.875 C129.92490177 83.70106747 127.87365742 94.39685869 127.6875 108.1875 C127.66969482 109.04327637 127.65188965 109.89905273 127.63354492 110.78076172 C127.64049976 116.28578628 128.48375651 120.09365715 131 125 C130.01 124.835 129.02 124.67 128 124.5 C118.78293477 123.34992056 109.15626718 123.56972305 99.97265625 124.84375 C96.56393248 125.11374792 93.36393595 124.55046225 90 124 C90 123.34 90 122.68 90 122 C76.4908095 121.63782788 76.4908095 121.63782788 63.15234375 123.42578125 C57.62663342 124.43232328 52.02594932 124.81535004 46.43408203 125.30224609 C41.91346491 125.70090285 37.46673375 126.1657175 33 127 C32.86980469 126.26394531 32.73960937 125.52789062 32.60546875 124.76953125 C32.0493842 122.2258929 31.31960613 120.07990822 30.3125 117.6875 C28.47000525 113.19181282 26.71065402 108.67207721 25 104.125 C24.73928711 103.4345459 24.47857422 102.7440918 24.20996094 102.03271484 C22.69863681 97.99206146 21.33506516 93.93604804 20.0625 89.8125 C14.8708151 74.04436611 5.91327909 62.8835111 -8 54 C-10.9576442 52.63459132 -13.82029225 51.68354562 -17 51 C-17.70253906 50.82082031 -18.40507812 50.64164063 -19.12890625 50.45703125 C-46.99648345 46.02096794 -88.48312116 50.14570916 -108.35546875 71.765625 Z " fill="#FEFEFE" transform="translate(235,50)"/>
<path d="M0 0 C4.36481776 1.89442306 8.2376901 4.01986131 12.03515625 6.88330078 C13.34419922 7.85009766 13.34419922 7.85009766 14.6796875 8.83642578 C29.19586031 20.12452659 43.78251356 36.16366445 47.03515625 54.88330078 C48.50787565 70.12824771 47.96390882 83.93702939 38.25390625 96.32080078 C31.15814672 104.51590334 22.74447241 110.19088063 13.03515625 114.88330078 C12.04515625 114.88330078 11.05515625 114.88330078 10.03515625 114.88330078 C10.03515625 115.54330078 10.03515625 116.20330078 10.03515625 116.88330078 C8.90980469 117.24681641 8.90980469 117.24681641 7.76171875 117.61767578 C6.22644531 118.12041016 6.22644531 118.12041016 4.66015625 118.63330078 C3.66242188 118.95814453 2.6646875 119.28298828 1.63671875 119.61767578 C-1.23472887 120.62673113 -4.01139296 121.71941537 -6.8203125 122.88330078 C-22.78326449 129.2840202 -39.63489414 129.31773459 -56.58984375 129.44580078 C-57.56315643 129.46042358 -58.53646912 129.47504639 -59.53927612 129.4901123 C-62.34075177 129.5256319 -65.13977912 129.5249337 -67.94140625 129.51220703 C-69.21669441 129.53182243 -69.21669441 129.53182243 -70.51774597 129.55183411 C-76.34390717 129.4607754 -76.34390717 129.4607754 -79.49365234 126.53149414 C-81.31781803 123.24793536 -81.65847222 121.58265262 -80.96484375 117.88330078 C-79.30233894 115.3258891 -78.57057727 114.29802391 -75.96484375 112.88330078 C-71.68001763 112.25962518 -67.47060116 112.41355331 -63.15234375 112.57080078 C-61.39760742 112.60463867 -61.39760742 112.60463867 -59.60742188 112.63916016 C-56.72525606 112.69797987 -53.84570694 112.78012937 -50.96484375 112.88330078 C-51.05880432 111.32047363 -51.05880432 111.32047363 -51.15466309 109.72607422 C-51.74828133 99.84209959 -52.33683451 89.95783423 -52.92060089 80.07327271 C-53.22078087 74.99319458 -53.52266097 69.9132301 -53.82861328 64.83349609 C-54.12455338 59.91890128 -54.41578366 55.00404675 -54.70393372 50.08898926 C-54.81391862 48.22650451 -54.92551772 46.36411426 -55.03886414 44.50183105 C-55.72079716 33.27705448 -56.12020752 22.13065159 -55.96484375 10.88330078 C-57.93517578 10.9703125 -57.93517578 10.9703125 -59.9453125 11.05908203 C-61.68095398 11.10599126 -63.41663398 11.15149017 -65.15234375 11.19580078 C-66.01666016 11.23769531 -66.88097656 11.27958984 -67.77148438 11.32275391 C-72.39816991 11.41138773 -74.29258263 11.42472491 -78.015625 8.42626953 C-78.65886719 7.58708984 -79.30210937 6.74791016 -79.96484375 5.88330078 C-80.29484375 5.55330078 -80.62484375 5.22330078 -80.96484375 4.88330078 C-81.55064022 0.68509274 -81.16664685 -0.82520585 -78.71484375 -4.36669922 C-63.65102465 -19.43051832 -17.49826307 -7.16963566 0 0 Z " fill="#F9F8FE" transform="translate(686.96484375,153.11669921875)"/>
<path d="M0 0 C2.36497439 1.86708505 3.66030715 3.32061431 5 6 C5.53437176 10.59040183 5.74766134 15.19929058 6 19.8125 C6.15275391 21.73932617 6.15275391 21.73932617 6.30859375 23.70507812 C6.77735094 32.89367567 6.77735094 32.89367567 4.60449219 35.98608398 C1.42805002 38.39930483 -1.71536732 39.65926173 -5.75 39.4375 C-6.85601563 39.40462891 -6.85601563 39.40462891 -7.984375 39.37109375 C-10 39 -10 39 -13 37 C-14.66677164 31.24206161 -14.08657016 24.94448426 -14 19 C-14.81452637 19.16604736 -14.81452637 19.16604736 -15.64550781 19.33544922 C-34.35583396 23.14006696 -34.35583396 23.14006696 -42.5390625 24.4296875 C-45.54114742 24.92438772 -48.53103542 25.45839113 -51.5234375 26.0078125 C-52.5343042 26.19085938 -53.5451709 26.37390625 -54.58666992 26.5625 C-56.60616917 26.9288433 -58.62463416 27.30094982 -60.6418457 27.6796875 C-66.53088378 28.73776053 -72.01668598 29.18486037 -78 29 C-77.9285376 29.77239014 -77.8570752 30.54478027 -77.78344727 31.34057617 C-77.06904099 39.68446707 -76.87800029 47.94134867 -76.9375 56.3125 C-76.94201172 57.54162109 -76.94652344 58.77074219 -76.95117188 60.03710938 C-76.96279711 63.02479356 -76.97913441 66.01236855 -77 69 C-69.64153177 67.6949922 -62.35587286 66.2311579 -55.06640625 64.5859375 C-52 64 -52 64 -48 64 C-48.16008545 63.4534375 -48.3201709 62.906875 -48.48510742 62.34375 C-49.51709951 57.64620423 -49.27013066 52.79055956 -49.3125 48 C-49.35600586 46.3603125 -49.35600586 46.3603125 -49.40039062 44.6875 C-49.40876953 43.635625 -49.41714844 42.58375 -49.42578125 41.5 C-49.44036377 40.5409375 -49.45494629 39.581875 -49.4699707 38.59375 C-48.85841641 35.2186057 -47.70361026 34.05444588 -45 32 C-39.36813627 31.36414442 -35.89242201 31.89748848 -31 35 C-24.42715917 48.14568166 -26.62898576 69.8063618 -26.52420044 84.17492676 C-26.50808503 86.26428062 -26.48375014 88.35358748 -26.45114136 90.44274902 C-26.40938712 93.41683105 -26.40255667 96.38894774 -26.40625 99.36328125 C-26.38998062 100.26127945 -26.37371124 101.15927765 -26.35694885 102.08448792 C-26.4062402 106.58151926 -26.51974122 108.40059712 -29.41992188 112.02026367 C-34.06680934 115.58589676 -36.98004523 116.73929269 -43 116 C-46.3359768 113.41050181 -47.85153547 112.00771535 -48.47583008 107.77026367 C-48.40775146 106.58150635 -48.33967285 105.39274902 -48.26953125 104.16796875 C-48.20830078 102.87568359 -48.14707031 101.58339844 -48.08398438 100.25195312 C-47.99405383 98.89709785 -47.90355185 97.54228038 -47.8125 96.1875 C-47.73914978 94.81327635 -47.66816115 93.43892449 -47.59960938 92.06445312 C-47.42293534 88.70764637 -47.22225039 85.35404692 -47 82 C-58.2415849 83.21181504 -58.2415849 83.21181504 -69.0703125 86.31640625 C-71 87 -71 87 -76 88 C-76 101.53 -76 115.06 -76 129 C-70.06 129.66 -64.12 130.32 -58 131 C-55.58429688 131.26941406 -53.16859375 131.53882813 -50.6796875 131.81640625 C-38.45851149 133.16332618 -26.28200107 134.40031346 -14 135 C-14.06171387 134.09233887 -14.12342773 133.18467773 -14.18701172 132.24951172 C-14.40222915 128.86189407 -14.58891611 125.47512602 -14.75683594 122.08496094 C-14.83507219 120.62174896 -14.92443979 119.15908611 -15.02539062 117.69726562 C-15.84281638 105.69745548 -15.84281638 105.69745548 -13.85131836 101.68652344 C-11.63803213 99.28651452 -9.48325742 98.11886859 -6.33203125 97.34375 C-5.50058594 97.3953125 -4.66914062 97.446875 -3.8125 97.5 C-2.97332031 97.5309375 -2.13414062 97.561875 -1.26953125 97.59375 C1 98 1 98 4 100 C4.43237305 101.9085083 4.43237305 101.9085083 4.51171875 104.26269531 C4.54765137 105.14411194 4.58358398 106.02552856 4.62060547 106.93365479 C4.64268066 107.88882996 4.66475586 108.84400513 4.6875 109.828125 C4.73221436 111.30076813 4.73221436 111.30076813 4.77783203 112.80316162 C4.8356512 114.88436278 4.88555839 116.96579631 4.92822266 119.04736328 C4.99943076 122.22460099 5.11353936 125.39837701 5.23046875 128.57421875 C5.281282 130.59628964 5.32954155 132.61842664 5.375 134.640625 C5.41326904 135.58770325 5.45153809 136.53478149 5.4909668 137.51055908 C5.54384328 141.92226632 5.49926829 144.99998893 2.6640625 148.52246094 C-0.67258973 151.62549859 -2.58994719 153.26796746 -7.12915039 153.16699219 C-7.95753922 153.15327576 -8.78592804 153.13955933 -9.63941956 153.12542725 C-10.53313766 153.099505 -11.42685577 153.07358276 -12.34765625 153.046875 C-13.73735878 153.01645111 -13.73735878 153.01645111 -15.15513611 152.9854126 C-17.11974204 152.93980783 -19.08423361 152.88902884 -21.04858398 152.83349609 C-24.02638043 152.75100064 -27.00409294 152.68868527 -29.98242188 152.62890625 C-31.89586369 152.58195013 -33.80927687 152.53380955 -35.72265625 152.484375 C-36.60220474 152.46654968 -37.48175323 152.44872437 -38.38795471 152.43035889 C-42.65748847 152.29819913 -46.61853245 151.93108689 -50.78564453 150.9753418 C-57.08341363 149.61474373 -63.29195805 149.80666731 -69.70703125 149.91015625 C-71.66805856 149.92535014 -73.62908618 149.9405268 -75.59012127 149.95468044 C-80.3817877 149.9927389 -85.17319901 150.05402595 -89.96459961 150.11645508 C-92.6703763 150.15093652 -95.37601972 150.17730822 -98.08195496 150.19541931 C-100.61960877 150.21325584 -103.15721259 150.24382863 -105.6945343 150.28858948 C-106.8431041 150.29527145 -107.99167389 150.30195343 -109.17504883 150.30883789 C-110.68534416 150.32787926 -110.68534416 150.32787926 -112.22615051 150.3473053 C-115.7775187 149.90264924 -118.45347447 148.54652553 -121 146 C-121.2734375 143.85546875 -121.2734375 143.85546875 -121.375 141.1875 C-121.42398438 140.31480469 -121.47296875 139.44210937 -121.5234375 138.54296875 C-121 136 -121 136 -119.12109375 133.69140625 C-114.62375501 131.25417512 -110.70641073 131.56697881 -105.6875 131.75 C-102.490625 131.8325 -99.29375 131.915 -96 132 C-96 119.46 -96 106.92 -96 94 C-98.64 93.67 -101.28 93.34 -104 93 C-107 92 -107 92 -108.75 89.9375 C-110.42722505 85.99602112 -110.47006508 83.03451194 -109 79 C-105.10185314 74.8298894 -102.56426724 73.85475575 -97 72 C-97 58.8 -97 45.6 -97 32 C-99.475 32.495 -99.475 32.495 -102 33 C-104.83183312 33.26658105 -107.65696193 33.32098719 -110.5 33.375 C-111.24636719 33.41238281 -111.99273438 33.44976562 -112.76171875 33.48828125 C-117.00096448 33.55580906 -118.54213376 33.35691 -122.01171875 30.65234375 C-124.19205106 27.74380615 -124.50553045 26.53871315 -124 23 C-124.99 22.67 -125.98 22.34 -127 22 C-125.42210402 20.84669053 -123.8374518 19.70262073 -122.25 18.5625 C-121.36828125 17.92441406 -120.4865625 17.28632813 -119.578125 16.62890625 C-115.77187669 14.22404936 -112.63640144 13.88500231 -108.1875 13.859375 C-82.29406568 13.43780421 -56.69657618 9.39987776 -31.31054688 4.44970703 C-28.24406546 3.85287073 -25.17348249 3.27892596 -22.10253906 2.70556641 C-20.17193057 2.34464215 -18.24217133 1.97918291 -16.3125 1.61328125 C-5.06541909 -0.46902029 -5.06541909 -0.46902029 0 0 Z " fill="#F9F9FE" transform="translate(880,153)"/>
<path d="M0 0 C3.32948513 3.17605264 3.54935946 6.13510769 3.875 10.625 C3.89304687 11.76582031 3.91109375 12.90664062 3.9296875 14.08203125 C3.68417207 16.72622865 3.68417207 16.72622865 5 17.8125 C6.06663343 26.32201009 6.13894768 34.89407426 6.09765625 43.45703125 C6.0962413 44.59283127 6.09482635 45.72863129 6.09336853 46.89884949 C6.08783677 50.47426148 6.07529772 54.0496074 6.0625 57.625 C6.05747616 60.07096263 6.05291481 62.51692625 6.04882812 64.96289062 C6.03788983 70.9127824 6.0212215 76.86263648 6 82.8125 C12.10787897 77.84457398 18.18241533 72.85211083 24.125 67.6875 C28.7756521 63.66465714 33.48730605 59.78681233 38.42578125 56.1171875 C40.13454489 54.87947902 40.13454489 54.87947902 41 52.8125 C40.21625 52.709375 39.4325 52.60625 38.625 52.5 C36 51.8125 36 51.8125 34 48.8125 C33.13343916 42.20497362 33.13343916 42.20497362 35.1328125 38.9921875 C39.37234088 34.39751538 43.15507374 33.95591363 49.33203125 33.64453125 C55.5378554 33.6097062 61.07660303 33.86750316 67.078125 35.43359375 C70.14152015 36.0375558 72.93560527 35.31485979 76 34.8125 C89.61169513 33.93586858 89.61169513 33.93586858 93.8125 36.75 C96.90071883 39.66174919 97.22863908 40.28401573 97.4375 44.5625 C97.4174208 49.2409546 97.4174208 49.2409546 95.73046875 51.55078125 C91.77103707 54.81658986 89.08486466 55.92683733 84.08984375 55.8828125 C82.60387695 55.89828125 82.60387695 55.89828125 81.08789062 55.9140625 C79.0150166 55.92948376 76.94183016 55.92228926 74.86914062 55.890625 C66.82050202 56.03592602 62.74786555 58.31008273 57 63.8125 C56.34781494 64.40417969 55.69562988 64.99585938 55.02368164 65.60546875 C52.54612708 67.87328831 50.13077851 70.20212431 47.71289062 72.53320312 C43.20496697 76.8125 43.20496697 76.8125 41 76.8125 C49.33416661 93.66695604 57.81295514 109.35023974 70 123.8125 C70.58652344 124.73160156 71.17304688 125.65070313 71.77734375 126.59765625 C74.41540354 129.22644342 76.0912629 129.35338336 79.74609375 129.41210938 C80.44863281 129.39986328 81.15117188 129.38761719 81.875 129.375 C87.70012284 129.30475269 91.37756262 129.99726437 96 133.8125 C98.32579101 137.30118651 98.41865457 138.70968519 98 142.8125 C96.625 145.1875 96.625 145.1875 95 146.8125 C94.34 146.8125 93.68 146.8125 93 146.8125 C93 147.4725 93 148.1325 93 148.8125 C89.36227897 151.06600102 86.08682984 151.18775153 81.86328125 151.41015625 C81.18323532 151.44934677 80.50318939 151.48853729 79.80253601 151.52891541 C77.63955631 151.65257327 75.47619324 151.76459031 73.3125 151.875 C71.13822302 151.99042073 68.96416675 152.10837247 66.79032898 152.23179626 C64.82578947 152.34271548 62.86077459 152.44511625 60.89575195 152.54711914 C58.10797912 152.491313 58.10797912 152.491313 57 153.8125 C43.74524018 155.21615419 43.74524018 155.21615419 38.625 151.3125 C36.31866773 148.8609327 35.56946609 147.04320924 35.4375 143.6875 C36.30361446 137.72093373 36.30361446 137.72093373 38 135.8125 C40.60184851 134.58591427 43.25235053 133.65596449 46 132.8125 C44.46051809 128.34631073 42.03353887 124.67287834 39.375 120.8125 C27.73810961 103.64383964 27.73810961 103.64383964 24 95.8125 C20.65615091 99.05800059 17.66782221 102.3748742 14.8203125 106.06640625 C13 107.8125 13 107.8125 9.36328125 109.32421875 C7.45386417 110.26067698 7.45386417 110.26067698 6 111.8125 C4.96422174 115.55089226 5.02086503 119.20269294 5.0625 123.0625 C5.04638672 124.09375 5.03027344 125.125 5.01367188 126.1875 C4.97835224 128.73051362 4.97492531 131.26948183 5 133.8125 C5.99 133.4825 6.98 133.1525 8 132.8125 C9.95475009 132.6677037 11.9151138 132.59182498 13.875 132.5625 C15.41800781 132.52382813 15.41800781 132.52382813 16.9921875 132.484375 C21.36157798 132.96103578 23.9371613 134.7496613 27 137.8125 C27.440166 141.08230458 27.66816887 143.61458768 26.01953125 146.5703125 C24.1508947 148.95066798 22.53900265 150.60855305 19.6875 151.6875 C19.130625 151.72875 18.57375 151.77 18 151.8125 C18 152.4725 18 153.1325 18 153.8125 C17.39937744 153.83755615 16.79875488 153.8626123 16.17993164 153.88842773 C13.47388563 154.0040528 10.76821717 154.12692936 8.0625 154.25 C7.11697266 154.28931641 6.17144531 154.32863281 5.19726562 154.36914062 C3.84858398 154.43198242 3.84858398 154.43198242 2.47265625 154.49609375 C1.64000244 154.53275146 0.80734863 154.56940918 -0.05053711 154.60717773 C-2.00338858 154.60617103 -2.00338858 154.60617103 -3 155.8125 C-8.04370146 156.70256496 -13.01676548 157.08127962 -18.125 157.1875 C-19.15947266 157.24357422 -19.15947266 157.24357422 -20.21484375 157.30078125 C-24.24579995 157.37014761 -25.80000462 156.98049612 -28.9296875 154.3515625 C-29.61289062 153.51367188 -30.29609375 152.67578125 -31 151.8125 C-31.33 151.4825 -31.66 151.1525 -32 150.8125 C-32.52704383 147.45259556 -32.77318455 144.97099246 -30.82421875 142.05078125 C-25.88692816 137.18419172 -20.70763344 136.83675907 -14 136.8125 C-13.41874141 127.35666833 -12.90020495 117.91350954 -12.875 108.4375 C-12.87048828 107.74342041 -12.86597656 107.04934082 -12.86132812 106.33422852 C-12.86910411 103.70303116 -12.90828392 101.21611436 -13.49291992 98.64331055 C-14.19005683 94.75149424 -14.19604763 90.9272272 -14.24609375 86.98046875 C-14.27766721 85.20433985 -14.30958124 83.42821698 -14.34179688 81.65209961 C-14.36487915 80.26545609 -14.36487915 80.26545609 -14.38842773 78.85079956 C-14.61602096 65.62902016 -14.86625188 52.43047381 -16 39.25 C-16.08306396 38.27764404 -16.16612793 37.30528809 -16.25170898 36.3034668 C-16.281546 32.22541034 -16.281546 32.22541034 -18 28.8125 C-18.04092937 26.47952567 -18.04241723 24.14544775 -18 21.8125 C-19.051875 21.85375 -20.10375 21.895 -21.1875 21.9375 C-24.83432497 21.81793197 -26.87991558 21.63254924 -30 19.8125 C-32.39529422 16.92162767 -32.96997662 15.05268705 -33.4375 11.3125 C-32.89444053 6.96802423 -32.32821227 5.67631055 -29 2.8125 C-20.67266379 -0.99245208 -8.38649646 -5.7635593 0 0 Z " fill="#F9F9FE" transform="translate(435,144.1875)"/>
<path d="M0 0 C5.07082513 6.24101555 7.31347135 13.27582522 9.4375 20.9375 C11.06509614 26.78164327 12.88061421 32.30318173 15.42919922 37.81420898 C17.06107497 41.35178371 18.52190881 44.95861474 20 48.5625 C20.29068359 49.26568359 20.58136719 49.96886719 20.88085938 50.69335938 C22.32291463 54.20010225 23.71479457 57.71604198 25.02734375 61.2734375 C26.05557578 63.99070441 27.08807497 66.50421505 28.4375 69.0625 C35.43398663 82.38497663 42.11153604 98.30138507 45.4375 113 C46.43330078 112.60167969 46.43330078 112.60167969 47.44921875 112.1953125 C50.11197917 111.13020833 52.77473958 110.06510417 55.4375 109 C56.29988281 108.63261719 57.16226563 108.26523438 58.05078125 107.88671875 C62.41440612 106.2655357 66.09626131 106.38769538 70.3125 108.3125 C72.4375 110 72.4375 110 73.4375 113 C73.8125 116.4375 73.8125 116.4375 73.4375 120 C71.125 122.4375 71.125 122.4375 68.4375 124 C67.4475 124 66.4575 124 65.4375 124 C65.4375 124.66 65.4375 125.32 65.4375 126 C63.1275 126.33 60.8175 126.66 58.4375 127 C58.4375 127.66 58.4375 128.32 58.4375 129 C57.88964844 129.17273438 57.34179688 129.34546875 56.77734375 129.5234375 C49.35706863 132.15371389 43.281517 136.22003261 36.85546875 140.66015625 C36.26604492 141.06306885 35.67662109 141.46598145 35.06933594 141.88110352 C33.67362319 142.83809806 32.28701736 143.80835144 30.90234375 144.78125 C27.74883986 146.34051024 25.31794164 146.43347076 21.8125 146.4375 C20.68585938 146.45683594 19.55921875 146.47617187 18.3984375 146.49609375 C15.4375 146 15.4375 146 13.546875 144.21484375 C12.13859536 141.4032432 12.1479832 139.10661689 12.6640625 136.02734375 C14.6570441 130.80331623 20.67104429 127.45132008 25.4375 125 C26.0975 125 26.7575 125 27.4375 125 C27.29127197 124.45585449 27.14504395 123.91170898 26.99438477 123.35107422 C26.32667767 120.85981959 25.66330782 118.3674294 25 115.875 C24.76990234 115.0190625 24.53980469 114.163125 24.30273438 113.28125 C23.13219613 108.87052617 22.08293654 104.52547458 21.4375 100 C9.3020165 100.04206407 -1.74219013 103.15831107 -13.33276367 106.46508789 C-15.5625 107 -15.5625 107 -18.5625 107 C-18.8925 109.97 -19.2225 112.94 -19.5625 116 C-18.758125 116.144375 -17.95375 116.28875 -17.125 116.4375 C-14.5625 117 -14.5625 117 -13.5625 118 C-13.15055943 120.95224072 -13.0064764 123.09957373 -14.609375 125.6953125 C-16.40779326 127.8851512 -18.00571069 129.72160534 -20.5625 131 C-28.91865039 131.59184374 -37.359786 130.65729102 -45.6796875 129.88305664 C-47.8220356 129.68662569 -49.96543406 129.50816985 -52.109375 129.33007812 C-53.49489152 129.2042194 -54.88031248 129.07730336 -56.265625 128.94921875 C-57.49958008 128.83924561 -58.73353516 128.72927246 -60.00488281 128.6159668 C-64.05104699 127.91541284 -66.9144743 126.87432075 -70.5625 125 C-73.06281654 121.24952518 -73.09853554 119.44143734 -72.5625 115 C-70.8125 112.0625 -70.8125 112.0625 -67.5625 110 C-63.53049309 109.43874464 -59.61324836 109.72431789 -55.5625 110 C-54.11596185 110.08208729 -52.66934243 110.16275162 -51.22265625 110.2421875 C-47.33350078 110.46418007 -43.44816783 110.72386117 -39.5625 111 C-39.45292969 110.289646 -39.34335938 109.57929199 -39.23046875 108.84741211 C-37.7936184 99.85322539 -35.82706548 91.02454645 -33.7734375 82.15429688 C-32.24455397 75.43261447 -31.02408858 68.74230443 -30.02734375 61.92211914 C-29.43089885 58.17272365 -28.54939838 54.60367329 -27.5625 50.9375 C-26.11894505 45.42011709 -24.99168992 39.94204654 -24.1328125 34.3046875 C-22.8976707 27.14763298 -21.18259655 20.07809174 -19.5625 13 C-21.72954516 13.45654041 -23.89611729 13.91532636 -26.0625 14.375 C-27.34640625 14.64699219 -28.6303125 14.91898438 -29.953125 15.19921875 C-32.61140332 15.78898829 -35.19911252 16.43696103 -37.8125 17.1875 C-43.0812634 18.3290654 -48.97182269 19.4918728 -53.828125 16.6953125 C-55.5625 15 -55.5625 15 -56.0625 11.5625 C-55.5625 8 -55.5625 8 -54.11328125 5.91015625 C-50.42426181 3.14762868 -46.73218285 2.65101221 -42.25 1.875 C-40.91183228 1.6279834 -40.91183228 1.6279834 -39.54663086 1.37597656 C-36.88851529 0.89514971 -34.22738872 0.44159847 -31.5625 0 C-30.83901367 -0.12149414 -30.11552734 -0.24298828 -29.37011719 -0.36816406 C-5.70228703 -4.23394812 -5.70228703 -4.23394812 0 0 Z " fill="#F9F9FE" transform="translate(211.5625,141)"/>
<path d="M0 0 C5.61145623 -0.20552503 10.32367093 0.30380164 15.6875 2.0625 C16.37593994 2.28437988 17.06437988 2.50625977 17.77368164 2.73486328 C36.91941103 9.19552574 51.67622802 21.6458537 61.625 39.17578125 C66.27649441 48.72984506 67.01680402 60.55162328 63.83203125 70.734375 C61.32336271 75.91938659 58.54448853 80.38506594 54 84 C53.0409375 84.7734375 53.0409375 84.7734375 52.0625 85.5625 C38.71989653 95.65960533 22.79264888 102.3325277 6 102 C3.13663784 79.02641595 1.51001282 56.14091231 0.75 33 C0.70925354 31.75959961 0.66850708 30.51919922 0.62652588 29.24121094 C-0.05365688 8.03158838 -0.05365688 8.03158838 0 0 Z " fill="#3427FD" transform="translate(650,163)"/>
<path d="M0 0 C2.32099075 2.61855367 2.82100444 3.5082031 3.4375 6.75 C3.97117187 6.42386719 4.50484375 6.09773437 5.0546875 5.76171875 C15.22141835 -0.20112166 24.87692168 -3.1061865 36.5 -0.125 C44.87904951 2.64633159 51.48980722 8.41607974 55.75 16.125 C56.69882004 19.74776742 57.18589004 23.04546928 56.4375 26.75 C53.45914553 30.53331514 51.16473211 32.29286395 46.38671875 33.09375 C40.42706033 33.50547079 40.42706033 33.50547079 37.62109375 31.36328125 C34.78623121 28.08791375 32.63021977 24.47762361 30.4375 20.75 C26.87704475 18.96977238 23.3065993 18.99595828 19.4375 19.75 C16.31341484 21.67336915 13.91741102 24.06388194 11.4375 26.75 C10.94121094 27.27464844 10.44492187 27.79929688 9.93359375 28.33984375 C3.91799936 35.10963206 3.00609885 40.67949246 3.14453125 49.3984375 C3.15089851 50.91723007 3.15089851 50.91723007 3.15739441 52.46670532 C3.17412698 55.68641248 3.21176974 58.90548344 3.25 62.125 C3.26505382 64.31379302 3.278741 66.50259589 3.29101562 68.69140625 C3.32401268 74.04448626 3.37415804 79.39719766 3.4375 84.75 C4.84902344 84.69779297 4.84902344 84.69779297 6.2890625 84.64453125 C8.15691406 84.60392578 8.15691406 84.60392578 10.0625 84.5625 C11.29226563 84.52769531 12.52203125 84.49289062 13.7890625 84.45703125 C18.42654848 84.82942038 21.49489346 86.45492897 25.3125 89 C27.33332373 92.14350358 27.10365339 94.11643604 26.4375 97.75 C22.81785029 101.90315817 18.87738448 105.50480069 13.2890625 106.06640625 C3.41064886 106.69604848 -6.47849873 106.90733613 -16.375 107 C-17.59687012 107.0213501 -18.81874023 107.0427002 -20.07763672 107.06469727 C-21.81231201 107.07134399 -21.81231201 107.07134399 -23.58203125 107.078125 C-24.61432861 107.0874707 -25.64662598 107.09681641 -26.71020508 107.10644531 C-30.0442718 106.68979399 -31.87504703 105.74001506 -34.5625 103.75 C-37.0111325 100.07705125 -37.39433438 97.01731035 -36.5625 92.75 C-34.02796343 89.53045355 -32.44952695 88.04567565 -28.5625 86.75 C-26.50104893 86.681009 -24.43748599 86.66532273 -22.375 86.6875 C-21.28832031 86.69652344 -20.20164062 86.70554687 -19.08203125 86.71484375 C-18.25058594 86.72644531 -17.41914063 86.73804688 -16.5625 86.75 C-16.61784912 86.14978027 -16.67319824 85.54956055 -16.73022461 84.93115234 C-18.01734188 70.69384061 -18.85479266 56.49839155 -19.22045898 42.20654297 C-19.42074959 34.68927486 -19.84644891 27.23630129 -20.5625 19.75 C-21.20711182 19.9039624 -21.85172363 20.0579248 -22.51586914 20.21655273 C-29.11017115 21.74823657 -35.81563939 22.75506331 -42.5625 21.75 C-45.53611086 19.53436838 -46.93209793 18.01080415 -48.5625 14.75 C-49.03997649 11.2712427 -49.23367492 8.79703288 -47.29296875 5.76953125 C-42.37063465 -0.03906251 -42.37063465 -0.03906251 -38.015625 -0.54711914 C-36.95859375 -0.62567139 -35.9015625 -0.70422363 -34.8125 -0.78515625 C-33.64589844 -0.87216797 -32.47929687 -0.95917969 -31.27734375 -1.04882812 C-30.05144531 -1.13583984 -28.82554687 -1.22285156 -27.5625 -1.3125 C-26.36753906 -1.40337891 -25.17257812 -1.49425781 -23.94140625 -1.58789062 C-3.93950161 -3.04476539 -3.93950161 -3.04476539 0 0 Z " fill="#FBFBFE" transform="translate(323.5625,214.25)"/>
<path d="M0 0 C1.10077881 0.01385742 2.20155762 0.02771484 3.33569336 0.04199219 C6.51625567 0.09150964 9.6951654 0.16674463 12.875 0.25 C13.69597168 0.26546875 14.51694336 0.2809375 15.36279297 0.296875 C23.20616846 0.46431197 29.17639605 1.01210771 35.875 5.25 C36.50145012 13.39385151 36.50145012 13.39385151 34 16.8125 C31.875 18.25 31.875 18.25 29.875 18.25 C29.875 18.91 29.875 19.57 29.875 20.25 C24.925 20.58 19.975 20.91 14.875 21.25 C15.03765854 22.85180618 15.20031708 24.45361237 15.36790466 26.10395813 C15.86663619 31.61449778 16.01096051 37.05679063 15.98852539 42.58666992 C15.98867142 43.5538797 15.98881744 44.52108948 15.9889679 45.51760864 C15.98827869 48.67191925 15.98053342 51.82616864 15.97265625 54.98046875 C15.97078854 57.18435128 15.9693663 59.38823422 15.96836853 61.59211731 C15.96457117 67.36073984 15.95476496 73.12933674 15.94366455 78.89794922 C15.93339031 84.797197 15.92885808 90.69644896 15.92382812 96.59570312 C15.91313992 108.14714661 15.89609732 119.69857116 15.875 131.25 C16.89980469 131.21519531 17.92460938 131.18039062 18.98046875 131.14453125 C20.34112936 131.11637965 21.7018078 131.08908096 23.0625 131.0625 C23.73603516 131.03736328 24.40957031 131.01222656 25.10351562 130.98632812 C29.5641773 130.92105015 32.35400823 131.46634729 35.875 134.25 C37.08972991 137.55272189 37.15449175 140.75635311 36.875 144.25 C34.50808237 148.69980515 31.49282692 150.43442219 26.875 152.25 C23.3021208 152.62300142 19.77078725 152.53183536 16.18359375 152.4296875 C15.16072769 152.41036163 14.13786163 152.39103577 13.08399963 152.37112427 C10.9279791 152.32635135 8.77210833 152.27376881 6.61645508 152.21386719 C3.32054447 152.12521637 0.02516954 152.06871359 -3.27148438 152.015625 C-5.36983619 151.96807148 -7.46814679 151.91865531 -9.56640625 151.8671875 C-10.54984512 151.85138641 -11.533284 151.83558533 -12.54652405 151.81930542 C-18.68214735 151.62297996 -22.52435114 150.9403264 -26.9375 146.375 C-28.47322035 143.62686884 -28.71727209 142.35942848 -28.125 139.25 C-25.68364157 135.88488432 -23.58756267 133.55837511 -20.125 131.25 C-14.515 131.25 -8.905 131.25 -3.125 131.25 C-3.125 95.61 -3.125 59.97 -3.125 23.25 C-8.075 23.25 -13.025 23.25 -18.125 23.25 C-23.06810077 21.27275969 -24.45575396 20.59988243 -27.125 16.25 C-27.81595334 13.07161465 -27.69912691 11.2660963 -26.08984375 8.41796875 C-19.58119679 -0.19375076 -10.07089518 -0.20560676 0 0 Z " fill="#FBFBFE" transform="translate(566.125,159.75)"/>
<path d="M0 0 C2.4763086 1.2381543 2.71822487 2.11468136 3.8828125 4.5859375 C4.24189697 5.34318115 4.60098145 6.1004248 4.97094727 6.88061523 C5.35178467 7.70376221 5.73262207 8.52690918 6.125 9.375 C6.5180835 10.21683838 6.91116699 11.05867676 7.31616211 11.92602539 C10.15514265 18.05715441 12.9012959 24.22721624 15.5625 30.4375 C16.08191162 31.63415283 16.08191162 31.63415283 16.61181641 32.85498047 C16.92683105 33.60279785 17.2418457 34.35061523 17.56640625 35.12109375 C17.84427979 35.7752124 18.12215332 36.42933105 18.40844727 37.10327148 C19 39 19 39 19 43 C15.62678224 43.67590188 12.25117758 44.33905518 8.875 45 C7.92367187 45.19078125 6.97234375 45.3815625 5.9921875 45.578125 C1.26361884 46.49756891 -3.15562735 47.2609763 -8 47 C-7.88482579 44.64499052 -7.75812022 42.29150927 -7.625 39.9375 C-7.55539063 38.62652344 -7.48578125 37.31554687 -7.4140625 35.96484375 C-7.00870387 32.08334364 -6.13163141 28.72441142 -5 25 C-4.65433167 23.13083049 -4.34058904 21.25541159 -4.0625 19.375 C-3.02802498 12.83711786 -1.55591573 6.43111835 0 0 Z " fill="#3B2FFD" transform="translate(206,182)"/>
<path d="M0 0 C0.66 0.33 1.32 0.66 2 1 C-2.62 5.62 -7.24 10.24 -12 15 C-12 10.91678393 -10.42111745 9.89782894 -7.6875 6.9375 C-6.88699219 6.05964844 -6.08648437 5.18179688 -5.26171875 4.27734375 C-3 2 -3 2 0 0 Z " fill="#5B51FD" transform="translate(383,115)"/>
<path d="M0 0 C1.08667969 0.01804687 2.17335938 0.03609375 3.29296875 0.0546875 C4.54013672 0.08949219 4.54013672 0.08949219 5.8125 0.125 C5.8125 0.455 5.8125 0.785 5.8125 1.125 C5.09964844 1.11597656 4.38679687 1.10695313 3.65234375 1.09765625 C-1.71885369 1.26392481 -5.32586174 1.54661715 -9.25 5.4375 C-11.37746121 7.83544528 -12.84587305 10.21707172 -14.1875 13.125 C-14.75427765 9.27091196 -14.2239642 8.17526147 -11.875 4.9375 C-7.8011049 0.6741214 -5.77021688 -0.12409069 0 0 Z " fill="#C5C1FE" transform="translate(552.1875,290.875)"/>
<path d="M0 0 C0.66 0.33 1.32 0.66 2 1 C-2.62 5.62 -7.24 10.24 -12 15 C-12 11.11566834 -10.82920314 10.32394504 -8.25 7.5 C-7.55390625 6.7265625 -6.8578125 5.953125 -6.140625 5.15625 C-4.19891408 3.20036601 -2.25069252 1.58156772 0 0 Z " fill="#5A4FFD" transform="translate(120,219)"/>
<path d="M0 0 C-1.6396875 0.6496875 -1.6396875 0.6496875 -3.3125 1.3125 C-7.20457558 2.95370663 -7.20457558 2.95370663 -10 6 C-10.73041853 9.61023099 -10.73041853 9.61023099 -11 13 C-11.33 13 -11.66 13 -12 13 C-12.6120761 5.77750207 -12.6120761 5.77750207 -9.6875 2.0625 C-6.10309396 -0.68832324 -4.24025183 -1.31594022 0 0 Z " fill="#CDC9FE" transform="translate(299,302)"/>
<path d="M0 0 C0.66 0.33 1.32 0.66 2 1 C1.50628906 1.44730469 1.01257813 1.89460938 0.50390625 2.35546875 C-4.41263727 6.77954779 -4.41263727 6.77954779 -6 13 C-6.33 13 -6.66 13 -7 13 C-7.4375 9.875 -7.4375 9.875 -7 6 C-4.93418366 3.61317961 -2.58391118 1.79950957 0 0 Z " fill="#CDCAFE" transform="translate(410,282)"/>
<path d="M0 0 C0.66 0.33 1.32 0.66 2 1 C-0.64 3.64 -3.28 6.28 -6 9 C-6.33 8.01 -6.66 7.02 -7 6 C-4.69 4.02 -2.38 2.04 0 0 Z " fill="#DAD8FE" transform="translate(232,269)"/>
<path d="M0 0 C0.66 0.33 1.32 0.66 2 1 C1.0409375 1.804375 1.0409375 1.804375 0.0625 2.625 C-2.38529404 5.44367193 -2.66714612 7.33860732 -3 11 C-3.33 11 -3.66 11 -4 11 C-4.49230769 4.6 -4.49230769 4.6 -2 1.5625 C-1.34 1.046875 -0.68 0.53125 0 0 Z " fill="#D1CEFE" transform="translate(160,145)"/>
</svg>
