<svg width="600" height="300" viewBox="0 0 600 300" fill="none" xmlns="http://www.w3.org/2000/svg">
<g clip-path="url(#clip0_1354_11)">
<path d="M0 300V0H600V300H0Z" fill="#4C4FFF"/>
<path d="M296.788 97.8438H291.658C287.474 97.8438 283.964 94.2328 283.964 89.9469C283.964 87.7871 284.875 85.8297 286.495 84.3786L289.802 81.1388C293.076 77.8991 293.076 72.6007 289.802 69.3609L282.277 61.9028C280.792 60.4179 278.598 59.5404 276.371 59.5404C274.143 59.5404 271.984 60.4179 270.465 61.9028L267.293 65.075C265.774 66.7624 263.749 67.6736 261.556 67.6736C257.236 67.6736 253.625 64.1638 253.625 60.0129V54.8495C253.625 50.2936 249.947 46.3789 245.357 46.3789H235.098C230.508 46.3789 226.863 50.2599 226.863 54.8495V59.9791C226.863 64.1301 223.252 67.6398 218.933 67.6398C216.773 67.6398 214.782 66.7286 213.331 65.1425L210.057 61.9028C208.572 60.3841 206.379 59.5404 204.151 59.5404C201.924 59.5404 199.764 60.4179 198.245 61.9028L190.652 69.3272C187.412 72.567 187.412 77.8653 190.652 81.0713L193.824 84.2436C195.512 85.7622 196.457 87.7871 196.457 89.9469C196.457 94.2666 192.947 97.8438 188.762 97.8438H183.633C179.009 97.8438 175.128 101.455 175.128 106.044V116.304C175.128 120.86 179.009 124.504 183.633 124.504H188.762C192.947 124.504 196.457 128.115 196.457 132.401C196.457 134.561 195.512 136.586 193.824 138.105L190.652 141.243C187.412 144.483 187.412 149.781 190.652 152.987L198.178 160.479C199.663 161.998 201.856 162.841 204.084 162.841C206.311 162.841 208.471 161.964 209.99 160.479L213.263 157.239C214.68 155.653 216.705 154.742 218.865 154.742C223.185 154.742 226.796 158.252 226.796 162.403V167.532C226.796 172.088 230.44 176.003 235.064 176.003H245.323C249.913 176.003 253.557 172.122 253.557 167.532V162.403C253.557 158.252 257.168 154.742 261.488 154.742C263.648 154.742 265.673 155.687 267.225 157.341L270.397 160.513C271.916 161.998 274.076 162.875 276.303 162.875C278.531 162.875 280.69 161.998 282.209 160.513L289.735 153.021C292.975 149.781 292.975 144.483 289.735 141.243L286.428 138.003C284.808 136.552 283.896 134.561 283.896 132.435C283.896 128.115 287.406 124.538 291.591 124.538H296.721C301.31 124.538 304.584 120.927 304.584 116.337V106.044C304.651 101.455 301.378 97.8438 296.788 97.8438ZM267.191 111.174C267.191 126.057 255.144 138.172 240.194 138.172C225.243 138.172 213.196 126.057 213.196 111.174C213.196 96.2914 225.243 84.1761 240.194 84.1761C255.144 84.1761 267.191 96.2914 267.191 111.174ZM106.136 256.601H101.006C96.8214 256.601 93.3117 252.99 93.3117 248.704C93.3117 246.545 94.2229 244.587 95.8428 243.136L99.15 239.896C102.424 236.657 102.424 231.358 99.15 228.118L91.6243 220.66C90.1394 219.175 87.9459 218.298 85.7185 218.298C83.4912 218.298 81.3313 219.175 79.8127 220.66L76.6404 223.832C75.1218 225.52 73.097 226.431 70.9034 226.431C66.5837 226.431 62.9727 222.921 62.9727 218.77V213.607C62.9727 209.051 59.2942 205.136 54.7046 205.136H44.4453C39.8557 205.136 36.211 209.017 36.211 213.607V218.737C36.211 222.888 32.6 226.397 28.2803 226.397C26.1205 226.397 24.1294 225.486 22.6782 223.9L19.4047 220.66C17.9198 219.142 15.7262 218.298 13.4989 218.298C11.2716 218.298 9.11173 219.175 7.5931 220.66L-9.53674e-05 228.085C-3.23985 231.324 -3.23985 236.623 -9.53674e-05 239.829L3.17217 243.001C4.85954 244.52 5.80449 246.545 5.80449 248.704C5.80449 253.024 2.29473 256.601 -1.88995 256.601H-7.01957C-11.643 256.601 -15.5239 260.212 -15.5239 264.802V275.061C-15.5239 279.617 -11.643 283.262 -7.01957 283.262H-1.88995C2.29473 283.262 5.80449 286.873 5.80449 291.159C5.80449 293.319 4.85954 295.343 3.17217 296.862L-9.53674e-05 300.001C-3.23985 303.24 -3.23985 308.539 -9.53674e-05 311.745L7.5256 319.237C9.01048 320.755 11.2041 321.599 13.4314 321.599C15.6587 321.599 17.8186 320.721 19.3372 319.237L22.6107 315.997C24.0281 314.411 26.053 313.5 28.2128 313.5C32.5325 313.5 36.1435 317.009 36.1435 321.16V326.29C36.1435 330.846 39.7882 334.76 44.4116 334.76H54.6708C59.2605 334.76 62.9052 330.879 62.9052 326.29V321.16C62.9052 317.009 66.5162 313.5 70.8359 313.5C72.9957 313.5 75.0206 314.444 76.573 316.098L79.7452 319.27C81.2638 320.755 83.4237 321.633 85.651 321.633C87.8784 321.633 90.0382 320.755 91.5568 319.27L99.0825 311.778C102.322 308.539 102.322 303.24 99.0825 300.001L95.7753 296.761C94.1554 295.31 93.2442 293.319 93.2442 291.192C93.2442 286.873 96.7539 283.296 100.939 283.296H106.068C110.658 283.296 113.931 279.685 113.931 275.095V264.802C113.999 260.212 110.725 256.601 106.136 256.601ZM76.5392 269.932C76.5392 284.814 64.4914 296.93 49.5412 296.93C34.5911 296.93 22.5432 284.814 22.5432 269.932C22.5432 255.049 34.5911 242.934 49.5412 242.934C64.4914 242.934 76.5392 255.049 76.5392 269.932Z" fill="#686BFF"/>
<path d="M441.173 318.451V198.493H479.474V318.451H441.173ZM386.996 317.887V232.169H425.297V317.887H386.996ZM542.831 318.696V132.834H581.132V318.696H542.831ZM492.831 318.853V232.414H531.132V318.853H492.831Z" fill="#686BFF"/>
<path d="M213.016 36.5449H214.434C215.852 36.5449 218.488 36.7085 224.688 37.1994C247.213 38.9447 259.43 46.126 263.994 60.3067C265.521 65.0699 266.212 69.7968 266.394 76.8145C266.466 79.9597 266.557 80.8505 266.866 81.8686C267.575 84.2139 269.775 87.5772 274.011 92.9041C279.12 99.3036 284.974 105.667 297.355 118.32L304.154 125.283L292.701 136.755L281.229 148.227L274.702 141.864C271.12 138.373 267.339 134.701 266.266 133.701C255.322 123.393 247.686 117.429 243.014 115.52C241.923 115.066 241.523 115.011 238.196 114.884C232.36 114.648 228.124 114.084 223.833 112.993C213.943 110.448 205.798 105.358 199.872 97.9946C196.145 93.3586 192.581 86.7955 190.272 80.2687L189.745 78.7234L190.381 77.4508C190.727 76.7599 191.09 76.1782 191.181 76.1782C191.272 76.1782 198.072 80.0142 206.289 84.7229C214.507 89.4135 221.397 93.2677 221.579 93.2677C221.779 93.2677 222.652 92.8132 223.542 92.2678C229.287 88.7226 233.851 83.7957 236.723 78.0507C238.941 73.6147 240.25 68.1788 240.577 62.1611L240.705 59.8704L240.177 59.5067C239.887 59.3068 233.069 55.398 225.033 50.8165C216.997 46.2169 210.398 42.3808 210.343 42.2536C210.307 42.1445 210.889 40.7991 211.634 39.2902L213.016 36.5449Z" fill="white"/>
<path d="M394.547 44.1816C394.656 44.1816 396.62 46.0542 398.91 48.3631C402.928 52.381 403.074 52.5628 402.837 52.9446C402.51 53.4718 383.184 81.1242 383.003 81.3241C382.93 81.415 380.585 82.0514 377.803 82.7422C375.003 83.4512 372.403 84.1057 372.003 84.1966C371.367 84.3603 366.258 89.4144 329.152 126.502C305.972 149.664 287.01 168.754 287.01 168.899C287.01 169.063 288.483 171.553 290.301 174.444C292.119 177.353 293.682 179.898 293.792 180.134C293.973 180.516 293.773 180.771 291.174 183.371C288.628 185.916 288.319 186.17 287.737 186.17C286.374 186.17 283.429 186.734 281.592 187.352C279.465 188.079 277.284 189.188 275.629 190.406C268.757 195.461 263.358 204.86 262.23 213.677L262.012 215.441L238.014 239.457L214.016 263.455L213.289 263.382C206.108 262.492 199.926 259.455 194.254 254.001C188.236 248.238 184.746 241.493 183.8 233.894L183.728 233.167L207.726 209.169L231.742 185.17L233.505 184.952C242.196 183.843 251.686 178.444 256.613 171.772C257.922 169.99 259.14 167.681 259.812 165.645C260.449 163.736 261.012 160.809 261.012 159.445C261.012 158.882 261.267 158.554 263.776 156.046C265.303 154.518 266.63 153.264 266.739 153.264C266.848 153.264 269.43 154.809 272.466 156.718C275.502 158.609 278.12 160.172 278.284 160.172C278.429 160.172 297.518 141.21 320.68 118.03C357.768 80.9242 362.822 75.8155 362.986 75.1792C363.077 74.7792 363.713 72.2885 364.368 69.6342C365.022 66.9799 365.622 64.671 365.695 64.5073C365.768 64.3255 372.24 59.6895 380.094 54.1809C387.948 48.6904 394.456 44.1816 394.547 44.1816Z" fill="white"/>
<path d="M321.88 143.082C321.917 143.082 325.571 146.627 329.971 150.954C338.788 159.59 341.206 161.917 345.169 165.517C353.296 172.861 359.005 177.097 362.786 178.588C364.113 179.097 364.386 179.134 367.822 179.279C373.658 179.515 377.912 180.079 382.185 181.17C392.129 183.733 400.219 188.787 406.146 196.169C409.891 200.823 413.437 207.368 415.746 213.895L416.273 215.44L415.636 216.713C415.291 217.403 414.927 217.985 414.836 217.985C414.746 217.985 407.946 214.149 399.729 209.44C391.511 204.75 384.621 200.896 384.421 200.896C384.239 200.896 383.312 201.368 382.385 201.95C371.731 208.659 366.168 218.512 365.44 232.002L365.313 234.293L365.84 234.657C366.131 234.857 372.876 238.729 380.821 243.256C388.766 247.783 395.402 251.601 395.547 251.728C395.783 251.946 395.638 252.328 394.456 254.709L393.111 257.437H390.911C379.476 257.418 367.604 255.582 360.295 252.673C352.46 249.564 346.715 244.456 343.569 237.784C341.097 232.548 339.842 226.075 339.624 217.349C339.515 213.095 339.37 212.331 338.279 210.186C334.916 203.477 325.644 192.933 304.009 171.116L298.918 165.989L310.372 154.536C316.662 148.227 321.844 143.082 321.88 143.082Z" fill="white"/>
<path d="M525.058 15.504H519.928C515.743 15.504 512.234 11.893 512.234 7.60707C512.234 5.44723 513.145 3.48987 514.765 2.03873L518.072 -1.20102C521.345 -4.44079 521.345 -9.73914 518.072 -12.9789L510.546 -20.4371C509.061 -21.922 506.868 -22.7994 504.64 -22.7994C502.413 -22.7994 500.253 -21.922 498.735 -20.4371L495.562 -17.2648C494.044 -15.5775 492.019 -14.6663 489.825 -14.6663C485.506 -14.6663 481.895 -18.176 481.895 -22.3269V-27.4903C481.895 -32.0462 478.216 -35.9609 473.626 -35.9609H463.367C458.777 -35.9609 455.133 -32.08 455.133 -27.4903V-22.3607C455.133 -18.2098 451.522 -14.7 447.202 -14.7C445.042 -14.7 443.051 -15.6112 441.6 -17.1973L438.327 -20.4371C436.842 -21.9557 434.648 -22.7994 432.421 -22.7994C430.193 -22.7994 428.034 -21.922 426.515 -20.4371L418.922 -13.0126C415.682 -9.77289 415.682 -4.47453 418.922 -1.26852L422.094 1.90375C423.781 3.42238 424.726 5.44723 424.726 7.60707C424.726 11.9267 421.217 15.504 417.032 15.504H411.902C407.279 15.504 403.398 19.115 403.398 23.7046V33.9639C403.398 38.5198 407.279 42.1645 411.902 42.1645H417.032C421.217 42.1645 424.726 45.7755 424.726 50.0614C424.726 52.2212 423.781 54.2461 422.094 55.7647L418.922 58.9032C415.682 62.143 415.682 67.4414 418.922 70.6474L426.447 78.1393C427.932 79.6579 430.126 80.5016 432.353 80.5016C434.581 80.5016 436.74 79.6242 438.259 78.1393L441.533 74.8995C442.95 73.3134 444.975 72.4022 447.135 72.4022C451.454 72.4022 455.065 75.912 455.065 80.0629V85.1925C455.065 89.7484 458.71 93.6631 463.333 93.6631H473.593C478.182 93.6631 481.827 89.7822 481.827 85.1925V80.0629C481.827 75.912 485.438 72.4022 489.758 72.4022C491.918 72.4022 493.942 73.3472 495.495 75.0008L498.667 78.1731C500.186 79.6579 502.345 80.5354 504.573 80.5354C506.8 80.5354 508.96 79.6579 510.479 78.1731L518.004 70.6811C521.244 67.4414 521.244 62.143 518.004 58.9032L514.697 55.6635C513.077 54.2123 512.166 52.2212 512.166 50.0951C512.166 45.7755 515.676 42.1982 519.86 42.1982H524.99C529.58 42.1982 532.853 38.5873 532.853 33.9976V23.7046C532.921 19.115 529.647 15.504 525.058 15.504ZM495.461 28.8342C495.461 43.7169 483.413 55.8322 468.463 55.8322C453.513 55.8322 441.465 43.7169 441.465 28.8342C441.465 13.9516 453.513 1.83625 468.463 1.83625C483.413 1.83625 495.461 13.9516 495.461 28.8342ZM140.55 50.2269H135.421C131.236 50.2269 127.726 46.616 127.726 42.33C127.726 40.1702 128.637 38.2128 130.257 36.7617L133.565 33.5219C136.838 30.2822 136.838 24.9838 133.565 21.7441L126.039 14.2859C124.554 12.801 122.36 11.9236 120.133 11.9236C117.906 11.9236 115.746 12.801 114.227 14.2859L111.055 17.4582C109.536 19.1455 107.512 20.0567 105.318 20.0567C100.998 20.0567 97.3873 16.547 97.3873 12.396V7.23265C97.3873 2.67675 93.7088 -1.23796 89.1191 -1.23796H78.8599C74.2702 -1.23796 70.6255 2.643 70.6255 7.23265V12.3623C70.6255 16.5132 67.0145 20.0229 62.6948 20.0229C60.535 20.0229 58.5439 19.1118 57.0928 17.5256L53.8193 14.2859C52.3344 12.7672 50.1408 11.9236 47.9135 11.9236C45.6861 11.9236 43.5263 12.801 42.0076 14.2859L34.4145 21.7103C31.1747 24.9501 31.1747 30.2484 34.4145 33.4545L37.5867 36.6267C39.2741 38.1454 40.219 40.1702 40.219 42.33C40.219 46.6497 36.7093 50.2269 32.5246 50.2269H27.395C22.7716 50.2269 18.8906 53.8379 18.8906 58.4276V68.6868C18.8906 73.2427 22.7716 76.8875 27.395 76.8875H32.5246C36.7093 76.8875 40.219 80.4984 40.219 84.7844C40.219 86.9442 39.2741 88.9691 37.5867 90.4877L34.4145 93.6262C31.1747 96.866 31.1747 102.164 34.4145 105.37L41.9402 112.862C43.425 114.381 45.6186 115.225 47.846 115.225C50.0733 115.225 52.2331 114.347 53.7518 112.862L57.0253 109.623C58.4427 108.036 60.4675 107.125 62.6274 107.125C66.947 107.125 70.558 110.635 70.558 114.786V119.915C70.558 124.471 74.2027 128.386 78.8262 128.386H89.0854C93.675 128.386 97.3198 124.505 97.3198 119.915V114.786C97.3198 110.635 100.931 107.125 105.25 107.125C107.41 107.125 109.435 108.07 110.988 109.724L114.16 112.896C115.678 114.381 117.838 115.258 120.066 115.258C122.293 115.258 124.453 114.381 125.971 112.896L133.497 105.404C136.737 102.164 136.737 96.866 133.497 93.6262L130.19 90.3865C128.57 88.9353 127.659 86.9442 127.659 84.8181C127.659 80.4984 131.168 76.9212 135.353 76.9212H140.483C145.072 76.9212 148.346 73.3102 148.346 68.7206V58.4276C148.413 53.8379 145.14 50.2269 140.55 50.2269ZM110.954 63.5572C110.954 78.4399 98.9059 90.5552 83.9558 90.5552C69.0056 90.5552 56.9578 78.4399 56.9578 63.5572C56.9578 48.6746 69.0056 36.5592 83.9558 36.5592C98.9059 36.5592 110.954 48.6746 110.954 63.5572Z" fill="#686BFF"/>
</g>
<defs>
<clipPath id="clip0_1354_11">
<rect width="600" height="300" fill="white"/>
</clipPath>
</defs>
</svg>
